<?xml version="1.0" encoding="UTF-8"?>
<svg xmlns="http://www.w3.org/2000/svg" xmlns:xlink="http://www.w3.org/1999/xlink" version="1.1" viewBox="0 0 232 113.7">
  <defs>
    <style>
      .cls-1 {
        fill: none;
      }

      .cls-2 {
        fill: #70c2b4;
      }

      .cls-3 {
        fill: #fff8d3;
      }

      .cls-4 {
        opacity: .3;
      }

      .cls-4, .cls-5 {
        mix-blend-mode: multiply;
      }

      .cls-5 {
        opacity: .8;
      }

      .cls-6 {
        fill: #024751;
      }

      .cls-7 {
        isolation: isolate;
      }

      .cls-8 {
        clip-path: url(#clippath-1);
      }

      .cls-9 {
        clip-path: url(#clippath-3);
      }

      .cls-10 {
        clip-path: url(#clippath-4);
      }

      .cls-11 {
        clip-path: url(#clippath-2);
      }

      .cls-12 {
        clip-path: url(#clippath-5);
      }

      .cls-13 {
        fill: #fff;
      }

      .cls-14 {
        fill: #ba2028;
      }

      .cls-15 {
        clip-path: url(#clippath);
      }
    </style>
    <clipPath id="clippath">
      <rect class="cls-1" x="12.4" y="11" width="204.8" height="69.8"></rect>
    </clipPath>
    <clipPath id="clippath-1">
      <rect class="cls-1" x="12.4" y="11" width="204.8" height="69.8"></rect>
    </clipPath>
    <clipPath id="clippath-2">
      <rect class="cls-1" x="28.2" y="29.1" width="181.6" height="45.3"></rect>
    </clipPath>
    <clipPath id="clippath-3">
      <rect class="cls-1" x="28.2" y="29.1" width="181.6" height="45.3"></rect>
    </clipPath>
    <clipPath id="clippath-4">
      <rect class="cls-1" x="31.2" y="76.4" width="169" height="6.7"></rect>
    </clipPath>
    <clipPath id="clippath-5">
      <rect class="cls-1" x="31.2" y="76.4" width="169" height="6.7"></rect>
    </clipPath>
  </defs>
  <g class="cls-7">
    <g id="Layer_1">
      <g>
        <path class="cls-3" d="M69.5,109.4c-7.6,0-13.7-6.2-13.7-13.7s6.2-13.7,13.7-13.7h96.5c7.6,0,13.7,6.2,13.7,13.7s-6.2,13.7-13.7,13.7h-96.5Z"></path>
        <path class="cls-3" d="M40.3,99.7c-7.6,0-13.7-6.2-13.7-13.7s6.2-13.7,13.7-13.7h153.2c7.6,0,13.7,6.2,13.7,13.7s-6.2,13.7-13.7,13.7H40.3Z"></path>
        <path class="cls-3" d="M27.1,90.9c-6.1,0-11.7-5.5-16.6-16.3-6.6-14.5-11.9-41.1.3-54.9C24.4,4.2,95.5,3,117,3s92.6,1.2,106.2,16.6c12.2,13.8,6.9,40.4.3,54.9-4.9,10.9-10.5,16.4-16.6,16.4H27.1Z"></path>
        <path class="cls-2" d="M27.1,88.5c-6.4,0-11.4-8.1-14.4-14.9-6.3-14-11.5-39.4-.1-52.4C25.8,6.1,101.9,5.4,117,5.4s91.2.8,104.4,15.8c11.4,13,6.2,38.4,0,52.3-3.1,6.8-8.1,15-14.5,15H27.1Z"></path>
        <path class="cls-6" d="M217.3,23.9C200.4,4.7,33.6,4.7,16.7,23.9c-14.3,16.2,1.5,60.5,11.7,60.5h177.3c10.2,0,26-44.2,11.7-60.5"></path>
        <path class="cls-13" d="M217.3,23.9C200.4,4.7,33.6,4.7,16.7,23.9c-14.3,16.2,1.5,60.5,11.7,60.5h177.3c10.2,0,26-44.2,11.7-60.5"></path>
        <path class="cls-6" d="M28.3,82.8c-2.1,0-6-3.6-9.6-11.7-9.2-20.3-7.3-39-.9-46.2,7.2-8.2,48-13.9,99.2-13.9s92,5.7,99.2,13.9c6.4,7.3,8.3,25.9-.9,46.2-3.7,8.1-7.5,11.8-9.6,11.8H28.3Z"></path>
        <g class="cls-5">
          <g class="cls-15">
            <g class="cls-8">
              <path class="cls-6" d="M20.5,73.2c-9.2-20.3-7.3-39-.9-46.2,7.2-8.2,48-13.9,99.2-13.9s89.4,5.4,98.4,13.1c-.3-.5-.7-.9-1-1.4-7.2-8.2-48-13.9-99.2-13.9S25,16.7,17.8,24.8c-6.4,7.3-8.2,25.9.9,46.2,2.1,4.7,4.2,7.9,6.1,9.7-1.4-1.9-2.8-4.4-4.3-7.6"></path>
            </g>
          </g>
        </g>
        <g class="cls-5">
          <g class="cls-11">
            <g class="cls-9">
              <path class="cls-6" d="M60,74c-1.1.3-2.3.4-3.5.4-4.5,0-6.1-1.9-7.4-9l-1.7-8.8-11.5,12s0,0-.1,0c0,0-7.3,1.2-7.3,1.2,0,0-.1,0-.2,0,0,0,0-.2,0-.2l11.2-33.2-3.9-.2c0,0-.2,0-.2-.1,0,0,0-.1,0-.2l2.2-6.6c0-.1.1-.2.2-.2h12.7c0,0,.2,0,.2.1,0,0,0,.1,0,.2l-7.5,22.2,20.7-22.5s.1,0,.2,0h9.1c0,0,.2,0,.2.1,0,0,0,.2,0,.3l-19.1,20,2.4,12.8c.6,3.1,1,4.9,4.2,4.9s.8,0,1.3,0c0,0,0,0,0,0,0,0,.1,0,.2,0,0,0,0,.2,0,.2l-2.2,6.4c0,0,0,.1-.2.2M134.3,70c0,0-.1,0-.2,0,0,0,0-.2,0-.2,1-3,1.8-5.4,2.6-7.7.8-2.4,1.6-4.9,2.7-8h-12.6c1.1.6,1.2,1.2,1.1,1.6-1.6,4.9-2.2,6.9-3.8,11.7l-.4,1.3c0,0-.1.2-.2.2,0,0-8,1.3-8,1.3,0,0-.1,0-.2,0,0,0,0-.2,0-.2,1-3,1.8-5.4,2.6-7.7.8-2.5,1.6-4.9,2.7-8.1h-6.3c0,0-.2,0-.2-.1,0,0,0-.1,0-.2l2.2-6.6c0,0,.1-.2.2-.2h6.5c1.7-5,3.3-9.8,5.1-14.7l1-2.9c0,0,.1-.2.2-.2h7.5c0,0,.2,0,.2.1,0,0,0,.1,0,.2l-2.1,6c-1.3,3.8-2.6,7.5-4,11.3h11c1.7-5,3.3-9.8,5.1-14.7l1-2.9c0,0,.1-.2.2-.2h7.5c0,0,.2,0,.2.1,0,0,0,.1,0,.2-.9,2.7-9.2,26.8-13.2,39.1,0,0-.1.2-.2.2,0,0-8,1.3-8,1.3M184.4,66.6c-3.5,0-5.4-1.5-5.8-4.7h0c-2.9,3.1-5.7,4.7-8.4,4.7s-4.9-1.7-5.4-4.2c-1.8,2.8-4.3,4.2-7.2,4.2s-4.7-1-6-3c-2.4-3.8-1.3-10.2.7-14.4,2.6-5.6,6.9-9,11.1-9s4.9,1.4,5.9,3.1l.8-2.4c0,0,.1-.2.2-.2h7.1c0,0,.2,0,.2.1,0,0,0,.2,0,.2l-1.1,2.8c-3.8,10-5.3,14.2-4.5,15.3.2.2.4.3.7.3,1.8,0,4.7-3.2,7.4-8v-.5c.3-.4.4-.7.5-1,1.7-5.4,4.2-12.3,6.7-19,0,0,.1-.1.2-.2,0,0,7.8-1.3,7.8-1.3,0,0,.1,0,.2,0,0,0,0,.2,0,.2-2.8,7.3-5.4,14.5-7.7,21.3-1.6,4.8-2.3,7.3-1.8,8,.1.1.3.3.8.3,1.8,0,4.7-3.2,7.4-8v-.4c.2-.4.3-.7.5-1.1,1.7-5.4,4.2-12.3,6.7-19,0,0,.1-.1.2-.2,0,0,7.8-1.3,7.8-1.3,0,0,.1,0,.2,0,0,0,0,.2,0,.2-2.6,6.8-5.1,14.1-6.9,19.4-.6,1.9-1.2,3.5-1.7,4.8-.9,2.6-1,4.2-.4,5.2.4.6,1,.8,2,.8s1.5-.1,2.1-.3c0,0,.4,0,.4,0,0,0,.1,0,.2,0,0,0,0,.2,0,.2l-1.6,4.9c0,0,0,.1-.1.1-1,.6-3.4,1.4-5.6,1.4-3.2,0-5-1.5-5.4-4.6h0c-2.9,3.1-5.7,4.7-8.4,4.7M164.3,46.7c-3.6,0-6.2,5.6-6.2,9.5s.2,1.9.6,2.5c.4.7,1.1,1,1.9,1,2.5,0,4.9-3.8,7.2-11.4-1.1-1.1-2.2-1.6-3.4-1.6M83.6,62.9c-2.9,2.3-7.1,3.7-11.3,3.7s-11.6-2.7-11.7-10.3c0-4.6,1.7-9,4.7-12.1,2.6-2.7,6-4.1,9.7-4.1s8.3,3,8.4,7.3c0,2.4-.8,4.5-2.5,6.2-2.3,2.4-6.1,3.9-9.9,3.9s-1.8,0-2.6-.3c.4,1.6,1.7,3.5,5.4,3.5s11.2-1.6,14.9-12.4l2.5-7.4c0,0,.1-.2.2-.2h7.1c0,0,.5.7.5.7,0,0,4-1.1,7.1-1.1s4.9,1.7,4.9,4.4-1.8,6.5-3.3,9.4c-.5.9-.9,1.8-1.2,2.5-.5,1.1-.5,1.9-.2,2.4.3.5,1,.8,2.1.8s1.7-.2,2.3-.3c0,0,0,0,0,0,0,0,.1,0,.2,0,0,0,0,.2,0,.2l-1.6,4.9c0,0,0,.1-.1.1-1.5.8-3.4,1.3-5.2,1.3-3.8,0-6-2-6-5.5s1.5-5.6,2.8-8.2c.9-1.9,1.8-3.4,1.7-4.5,0-.9-.5-1.4-1.2-1.4-4.9,0-9.9,15.8-10.8,19,0,.1-.1.2-.2.2h-7.2c0,0-.2,0-.2-.1,0,0,0-.1,0-.2l1-2.8ZM68.8,52.8c2.3,0,4.4-.6,5.8-1.7,1.6-1.3,1.9-2.8,1.6-3.8-.3-.9-1-1.4-1.9-1.4s-1.7.3-3.1,1.6c-1.3,1.2-2.3,3.1-2.7,5.3h.4Z"></path>
            </g>
          </g>
        </g>
        <path class="cls-3" d="M53.8,71.6c-4.5,0-6.1-1.9-7.4-9.1l-1.7-8.8-11.4,12s0,0-.1,0c-2.8.5-6.2,1-6.2,1,0,0-.2,0-.2,0,0,0,0-.2,0-.3l11.2-33.2h-4.9c0,0-.2,0-.2,0,0,0,0-.2,0-.2l2.2-6.6c0-.1.1-.2.3-.2h12.7c0,0,.2,0,.2.1,0,0,0,.2,0,.2l-7.5,22.2,20.7-22.5c0,0,.1,0,.2,0h9.1c.1,0,.2,0,.2.2s0,.2,0,.3l-19.1,20,2.4,12.8c.6,3,1,4.9,4.1,4.9s.8,0,1.3,0h0c.1,0,.2,0,.2.1,0,0,0,.2,0,.3l-2.2,6.4c0,0,0,.1-.2.2-1.1.3-2.3.4-3.5.4M131.7,67.1c0,0-.2,0-.2,0,0,0,0-.2,0-.3,1-3,1.8-5.4,2.6-7.7h0c.8-2.5,1.6-4.9,2.6-8h-12.5c.9.5,1.3,1.1,1.1,1.6-1.2,3.5-1.8,5.5-2.6,8.1-.3,1.1-1.6,4.9-1.6,4.9,0,0-.1.2-.2.2-3.6.6-8,1.3-8,1.3,0,0-.2,0-.2,0,0,0,0-.2,0-.3,1-3,1.8-5.3,2.5-7.7h0c.8-2.5,1.6-5,2.7-8.1h-6.3c0,0-.2,0-.2,0,0,0,0-.2,0-.2l2.2-6.6c0-.1.1-.2.3-.2h6.5c1.7-5,3.3-9.7,5-14.7l1-2.9c0-.1.1-.2.3-.2h7.5c0,0,.2,0,.2.1,0,0,0,.2,0,.2l-2.1,6c-1.4,3.9-2.6,7.5-4,11.3h10.9c1.7-5.1,3.4-10,5-14.7l1-2.9c0-.1.1-.2.3-.2h7.5c0,0,.2,0,.2.1,0,0,0,.2,0,.2-1.5,4.5-9.4,27.3-13.2,39.1,0,0-.1.2-.2.2-3.6.6-8,1.3-8,1.3M181.7,63.8c-3.6,0-5.4-1.5-5.8-4.8-2.9,3.2-5.7,4.8-8.4,4.8s-5-1.7-5.5-4.2c-1.7,2.8-4.2,4.2-7.2,4.2s-4.8-1-6-3c-2.4-3.8-1.3-10.2.7-14.5,2.6-5.6,6.9-9,11.1-9s4.9,1.4,6,3.2l.8-2.3c0-.1.1-.2.3-.2h7.1c0,0,.2,0,.2.1,0,0,0,.2,0,.2l-1.1,2.8c-3.7,10-5.3,14.2-4.5,15.3.1.2.4.3.7.3,1.8,0,4.7-3.2,7.4-8v-.5c.3-.4.4-.7.5-1,1.7-5.4,4.2-12.3,6.7-19,0,0,.1-.2.2-.2,3.6-.6,7.8-1.3,7.8-1.3,0,0,.2,0,.2.1,0,0,0,.2,0,.3-2.8,7.3-5.4,14.5-7.7,21.3-1.6,4.8-2.3,7.3-1.8,8,0,.1.3.3.8.3,1.8,0,4.7-3.2,7.4-8v-.4c.2-.4.3-.7.5-1.1,1.7-5.4,4.2-12.3,6.7-19,0,0,.1-.2.2-.2,3.6-.6,7.8-1.3,7.8-1.3,0,0,.2,0,.2.1,0,0,0,.2,0,.3-2.6,6.9-5.1,14.1-6.9,19.4v.2c-.7,1.8-1.2,3.4-1.7,4.6-.9,2.5-1,4.2-.4,5.1.4.5,1,.8,2,.8s1.5-.1,2.1-.3c.2,0,.4,0,.4,0,0,0,.2,0,.2,0,0,0,0,.2,0,.3l-1.6,4.9c0,0,0,.1-.1.2-1,.6-3.4,1.4-5.7,1.4-3.2,0-5-1.5-5.4-4.6-2.9,3.2-5.7,4.8-8.4,4.8M161.7,43.9c-3.6,0-6.2,5.6-6.2,9.4s.2,1.9.6,2.5c.4.7,1,1,1.8,1,2.4,0,4.9-3.8,7.2-11.4-1.1-1-2.2-1.5-3.4-1.5M69.6,63.8c-5.4,0-11.7-2.7-11.7-10.3,0-4.6,1.7-9,4.7-12.1,2.6-2.7,6-4.1,9.7-4.1s8.4,3,8.4,7.3c0,2.4-.8,4.5-2.5,6.2-2.3,2.4-6.1,3.9-9.9,3.9s-1.8,0-2.6-.3c.4,1.5,1.7,3.4,5.5,3.4s11.2-1.6,14.8-12.4l2.5-7.4c0-.1.1-.2.3-.2h7.1c0,0,.2,0,.2.1,0,0,0,.2,0,.2l-1.6,4.6c2.4-3.3,5.8-5.3,8.9-5.3s4.9,1.7,4.9,4.4-1.8,6.6-3.3,9.5c-.5.9-.9,1.8-1.2,2.5-.5,1-.5,1.8-.2,2.4.3.5,1,.8,2.1.8s1.7-.2,2.3-.3h0c0,0,.1,0,.2,0,0,0,0,.2,0,.3l-1.6,4.9c0,0,0,.1-.1.2-1.5.8-3.5,1.3-5.2,1.3-3.8,0-6-2-6-5.5s1.5-5.6,2.8-8.2c.9-1.8,1.8-3.4,1.7-4.5,0-.9-.4-1.4-1.2-1.4-4.9,0-9.9,15.8-10.8,19,0,.1-.1.2-.3.2h-7.2c0,0-.2,0-.2-.1,0,0,0-.2,0-.2l1-2.8c-2.9,2.4-7.1,3.8-11.3,3.8M71.5,43.2c-.7,0-1.7.3-3.1,1.5-1.3,1.2-2.3,3.1-2.7,5.3h.4c2.3,0,4.4-.6,5.8-1.7,1.6-1.3,1.9-2.8,1.5-3.7-.3-.8-1-1.4-1.9-1.4"></path>
        <path class="cls-6" d="M152.8,26.2c0,0,.2,0,.2.1,0,0,0,.1,0,.2-.9,2.7-9.2,26.8-13.2,39.1,0,0-.1.2-.2.2,0,0-8,1.3-8,1.3,0,0-.1,0-.2,0,0,0,0-.2,0-.2,1-3,1.8-5.4,2.6-7.7.8-2.4,1.6-4.9,2.7-8h-12.6c1.1.6,1.2,1.2,1.1,1.6-1.6,4.9-2.2,6.9-3.8,11.7l-.4,1.3c0,0-.1.2-.2.2,0,0-8,1.3-8,1.3,0,0-.1,0-.2,0,0,0,0-.2,0-.2,1-3,1.8-5.4,2.6-7.7.8-2.5,1.6-4.9,2.7-8.1h-6.3c0,0-.2,0-.2-.1,0,0,0-.1,0-.2l2.2-6.6c0,0,.1-.2.2-.2h6.5c1.7-5,3.3-9.8,5.1-14.7l1-2.9c0,0,.1-.2.2-.2h7.5c0,0,.2,0,.2.1,0,0,0,.1,0,.2l-2.1,6c-1.3,3.8-2.6,7.5-4,11.3h11c1.7-5,3.3-9.8,5.1-14.7l1-2.9c0,0,.1-.2.2-.2h7.5ZM70.5,26.2c0,0,.2,0,.2.1,0,0,0,.2,0,.3l-19.1,20,2.4,12.8c.6,3.1,1,4.9,4.2,4.9s.8,0,1.3,0c0,0,0,0,0,0,0,0,.1,0,.2,0,0,0,0,.2,0,.2l-2.2,6.4c0,0,0,.1-.2.2-1.1.3-2.3.4-3.5.4-4.5,0-6.1-1.9-7.4-9l-1.7-8.8-11.5,12s0,0-.1,0c0,0-6.2,1-6.2,1,0,0-.1,0-.2,0,0,0,0-.2,0-.2l11.2-33.2h-4.9c0,0-.2,0-.2-.1,0,0,0-.1,0-.2l2.2-6.6c0,0,.1-.2.2-.2h12.7c0,0,.2,0,.2.1,0,0,0,.1,0,.2l-7.5,22.2,20.7-22.5s.1,0,.2,0h9.1M206.9,26.7c0,0,.1,0,.2,0,0,0,0,.2,0,.2-2.6,6.8-5.1,14.1-6.9,19.4-.6,1.9-1.2,3.5-1.7,4.8-.9,2.6-1,4.2-.4,5.2.4.6,1,.8,2,.8s1.5-.1,2.1-.3c0,0,.4,0,.4,0,0,0,.1,0,.2,0,0,0,0,.2,0,.2l-1.6,4.9c0,0,0,.1-.1.1-1,.6-3.4,1.4-5.6,1.4-3.2,0-5-1.5-5.4-4.6h0c-2.9,3.1-5.7,4.7-8.4,4.7s-5.4-1.5-5.8-4.7h0c-2.9,3.1-5.7,4.7-8.4,4.7s-4.9-1.7-5.4-4.2c-1.8,2.8-4.3,4.2-7.2,4.2s-4.7-1-6-3c-2.4-3.8-1.3-10.2.7-14.4,2.6-5.6,6.9-9,11.1-9s4.9,1.4,5.9,3.1l.8-2.4c0,0,.1-.2.2-.2h7.1c0,0,.2,0,.2.1,0,0,0,.2,0,.2l-1.1,2.8c-3.8,10-5.3,14.2-4.5,15.3.2.2.4.3.7.3,1.8,0,4.7-3.2,7.4-8.1v-.5c.3-.4.4-.7.5-1,1.7-5.4,4.2-12.3,6.7-19,0,0,.1-.1.2-.2,0,0,7.8-1.3,7.8-1.3,0,0,.1,0,.2,0,0,0,0,.2,0,.2-2.8,7.3-5.4,14.5-7.7,21.3-1.6,4.8-2.3,7.3-1.8,8,.1.1.3.3.8.3,1.8,0,4.7-3.2,7.4-8v-.4c.2-.4.3-.7.5-1.1,1.7-5.4,4.2-12.3,6.7-19,0,0,.1-.1.2-.2,0,0,7.8-1.3,7.8-1.3M157.9,56.8c2.5,0,4.9-3.8,7.2-11.4-1.1-1.1-2.2-1.6-3.4-1.6-3.6,0-6.2,5.6-6.2,9.5s.2,1.9.6,2.5c.4.7,1.1,1,1.9,1M72.3,37.3c4.9,0,8.3,3,8.4,7.3,0,2.4-.8,4.5-2.5,6.2-2.3,2.4-6.1,3.9-9.9,3.9s-1.8,0-2.6-.3c.4,1.6,1.7,3.5,5.4,3.5s11.2-1.6,14.9-12.4l2.5-7.4c0,0,.1-.2.2-.2h7.1c0,0,.2,0,.2.1,0,0,0,.1,0,.2l-1.6,4.6c2.5-3.3,5.8-5.2,9-5.2s4.9,1.7,4.9,4.4-1.8,6.5-3.3,9.4c-.5.9-.9,1.8-1.2,2.5-.5,1.1-.5,1.9-.2,2.4.3.5,1,.8,2.1.8s1.7-.2,2.3-.3c0,0,0,0,0,0,0,0,.1,0,.2,0,0,0,0,.2,0,.2l-1.6,4.9c0,0,0,.1-.1.1-1.5.8-3.4,1.3-5.2,1.3-3.8,0-6-2-6-5.5s1.5-5.6,2.8-8.2c.9-1.8,1.8-3.4,1.7-4.5,0-.9-.5-1.4-1.2-1.4-4.9,0-9.9,15.8-10.8,19,0,.1-.1.2-.2.2h-7.2c0,0-.2,0-.2-.1,0,0,0-.1,0-.2l1-2.8c-2.9,2.3-7.1,3.7-11.3,3.7s-11.6-2.7-11.7-10.3c0-4.6,1.7-9,4.7-12.1,2.6-2.7,6-4.1,9.7-4.1M66.1,50c2.3,0,4.4-.6,5.8-1.7,1.6-1.3,1.9-2.8,1.6-3.8-.3-.9-1-1.4-1.9-1.4s-1.7.3-3.1,1.6c-1.3,1.2-2.3,3.1-2.7,5.3h.4M152.8,26.1h-7.5c-.1,0-.2,0-.3.2l-1,2.9c-1.7,4.9-3.3,9.6-5,14.6h-10.8c1.3-3.8,2.6-7.3,3.9-11.1v-.2c0,0,2.2-6,2.2-6,0,0,0-.2,0-.3,0,0-.1-.1-.2-.1h-7.5c-.1,0-.2,0-.3.2l-1,2.9c-1.7,4.9-3.3,9.6-5,14.6h-6.5c-.1,0-.2,0-.3.2l-2.2,6.6c0,0,0,.2,0,.3,0,0,.1.1.2.1h6.3c-1.1,3.2-1.9,5.8-2.7,8-.8,2.3-1.6,4.7-2.6,7.7,0,0,0,.2,0,.3,0,0,.1.1.2.1s0,0,8-1.3c.1,0,.2,0,.2-.2l.4-1.3c.5-1.4.8-2.6,1.2-3.6.8-2.6,1.5-4.6,2.6-8.1.2-.6-.1-1.1-.9-1.6h12.3c-1.1,3.2-1.9,5.8-2.6,8-.8,2.4-1.6,4.8-2.6,7.7,0,0,0,.2,0,.3,0,0,.1.1.2.1s0,0,8-1.3c.1,0,.2,0,.2-.2,3.8-11.9,11.7-34.6,13.2-39.1,0,0,0-.2,0-.3,0,0-.1-.1-.2-.1M70.5,26.1h-9.1c0,0-.2,0-.2,0l-20.6,22.3,7.4-22c0,0,0-.2,0-.3,0,0-.1-.1-.2-.1h-12.7c-.1,0-.2,0-.3.2l-2.2,6.6c0,0,0,.2,0,.3,0,0,.1.1.2.1h4.9l-11.2,33.1c0,0,0,.2,0,.3,0,0,.1.1.2.1s0,0,6.2-1c0,0,.1,0,.2,0l11.4-11.9,1.7,8.7c1.3,7.1,2.9,9.1,7.5,9.1s2.4-.1,3.5-.4c0,0,.2,0,.2-.2l2.2-6.4c0,0,0-.2,0-.3,0,0-.1-.1-.2-.1h0s0,0,0,0h0c-.5,0-.9,0-1.3,0-3.1,0-3.5-1.8-4.1-4.9l-2.4-12.8,19.1-19.9c0,0,.1-.2,0-.3,0-.1-.2-.2-.3-.2M206.9,26.7s0,0-7.8,1.3c-.1,0-.2,0-.2.2-2.5,6.7-5,13.6-6.7,19-.1.4-.2.7-.3,1.1v.4c-2.8,4.9-5.7,8-7.5,8s-.7-.2-.8-.3c-.5-.8.2-3.2,1.8-8,2.3-6.8,4.9-14,7.7-21.3,0,0,0-.2,0-.3,0,0-.1-.1-.2-.1s0,0-7.8,1.3c-.1,0-.2,0-.2.2-2.5,6.7-5,13.6-6.7,19-.1.3-.2.7-.3,1v.5c-2.8,4.9-5.7,8-7.5,8s-.6-.1-.7-.3c-.8-1.1.8-5.3,4.5-15.3l1.1-2.8c0,0,0-.2,0-.3,0,0-.1-.1-.2-.1h-7.1c-.1,0-.2,0-.3.2l-.8,2.3c-1.1-1.8-3.6-3.1-5.9-3.1-4.3,0-8.5,3.5-11.1,9-2,4.3-3.1,10.6-.7,14.5,1.3,2,3.3,3,6,3s5.4-1.4,7.2-4.1c.6,2.4,2.8,4.1,5.5,4.1s5.5-1.6,8.4-4.7c.4,3.2,2.3,4.7,5.8,4.7s5.5-1.6,8.4-4.7c.4,3,2.2,4.5,5.4,4.5s4.6-.8,5.7-1.4c0,0,.1,0,.1-.2l1.6-4.9c0-.1,0-.2,0-.3,0,0-.1-.1-.2-.1s0,0-.4,0c-.7.1-1.4.3-2.1.3s-1.6-.3-2-.8c-.6-.9-.5-2.6.4-5.1.4-1.2,1-2.8,1.6-4.6v-.2c1.9-5.3,4.4-12.5,7-19.4,0,0,0-.2,0-.3,0,0-.1-.1-.2-.1M157.9,56.8c-.8,0-1.4-.3-1.8-1-.4-.6-.6-1.5-.6-2.5,0-3.8,2.6-9.4,6.2-9.4s2.3.5,3.4,1.5c-2.3,7.5-4.7,11.3-7.2,11.3M72.3,37.2c-3.7,0-7.1,1.4-9.7,4.1-3,3.1-4.7,7.5-4.7,12.1,0,7.6,6.4,10.3,11.8,10.3s8.3-1.4,11.2-3.6l-.9,2.6c0,0,0,.2,0,.3,0,0,.1.1.2.1h7.2c.1,0,.2,0,.3-.2.9-3.2,5.9-18.9,10.8-18.9s1.2.5,1.2,1.3c0,1.1-.8,2.7-1.7,4.5-1.3,2.6-2.8,5.4-2.8,8.2s2.3,5.5,6.1,5.5,3.7-.5,5.3-1.3c0,0,.1,0,.1-.2l1.6-4.9c0-.1,0-.2,0-.3,0,0-.1-.1-.2-.1s0,0,0,0c-.6.1-1.5.3-2.3.3s-1.7-.3-2.1-.8c-.3-.5-.3-1.3.2-2.4.3-.7.7-1.6,1.2-2.5h0c1.5-2.9,3.3-6.6,3.3-9.5s-1.9-4.4-4.9-4.4-6.3,1.9-8.8,5l1.5-4.3c0,0,0-.2,0-.3,0,0-.1-.1-.2-.1h-7.1c-.1,0-.2,0-.3.2l-2.5,7.4c-3.6,10.8-10.8,12.4-14.8,12.4s-5-1.8-5.4-3.3c.8.2,1.7.3,2.6.3,3.8,0,7.6-1.5,9.9-3.9,1.7-1.8,2.6-3.9,2.5-6.2,0-4.3-3.5-7.4-8.4-7.4M65.8,49.9c.5-2.1,1.4-4,2.7-5.2,1.3-1.3,2.4-1.5,3.1-1.5s1.6.5,1.9,1.3c.3.9,0,2.4-1.5,3.7-1.4,1.1-3.5,1.7-5.8,1.7h-.3Z"></path>
        <path class="cls-13" d="M66.2,57.4c.9,1.3,2.6,2.4,5.6,2.4s12-1.7,15.8-13.1l2.3-6.8h4.2l.3-.9h-5.4l-2.3,6.8c-3.8,11.4-11.6,13.1-15.8,13.1s-3.8-.6-4.8-1.5M103.3,57.6c0,0,0,.2.1.2.5.8,1.5,1.3,3,1.3s0,0,0,0l.3-1c-.4,0-.8,0-1.2,0-1,0-1.7-.2-2.3-.6M92.8,47.6c1.3-2.1,2.7-3.7,4.3-4.9,2.1-2.3,4.7-3.1,7.1-3.1s1.9.2,2.6.7c-.7-1.2-2.1-1.7-3.4-1.7-6.7.3-10.1,7.7-10.6,8.9M55,64.4c.6.9,1.5,1.6,3,1.8l.3-.8h-.2c-1.4,0-2.4-.3-3.1-.9M74.1,43.6c.1.2.2.4.3.6.6,1.7-.2,3.6-1.9,4.9-1.6,1.2-3.9,1.9-6.4,1.9h-.7s-.2.9-.2.9h1.7c2.6,0,4.9-.6,6.4-1.9,1.7-1.3,2.5-3.3,1.9-4.9-.2-.7-.6-1.2-1.1-1.6M167.7,43.9l1.4-4h4.2l.3-.9h-5.3l-1.3,3.6.7,1.2ZM184.3,57.8c-.4,0-.8,0-1.1-.3,0,.1.1.3.2.4.4.5.9.8,1.7.8,3.3,0,6.9-6,8.3-8.6h0c0-.1.3-1.2.5-1.7,1.7-5.2,4.1-12,6.5-18.5l4.7-.8c.1-.4.3-.8.4-1.1l-5.9,1c-2.4,6.5-4.9,13.3-6.5,18.5-.2.5-.5,1.6-.5,1.6h0c-1.4,2.7-5,8.7-8.3,8.7M170.1,57.8c-.4,0-.7,0-1-.2,0,.1.1.3.2.4.2.4.7.8,1.6.8,3.3,0,6.9-6,8.3-8.6h0c0-.1.3-1.2.5-1.7,1.7-5.2,4.1-12,6.5-18.5l4.7-.8c.1-.4.3-.8.4-1.1l-5.9,1c-2.4,6.5-4.9,13.3-6.5,18.5-.2.5-.5,1.6-.5,1.6h0c-1.4,2.7-5,8.7-8.3,8.7M198,57.6c0,0,0,.2.1.2.6.8,1.5,1.3,2.9,1.3s.1,0,.2,0l.3-1c-.4,0-.9.1-1.3.1-.9,0-1.6-.2-2.1-.6M38.7,54l23.8-25.8h5.1l.9-.9h-6.8l-22,23.9-1,2.9ZM167.1,46l-.5-.5c-.1-.1-.3-.2-.4-.3v.5c-2.7,8.2-5.4,12.1-8.4,12.1s-1.4-.2-2-.7c0,0,0,0,0,0,.6,1,1.6,1.5,2.7,1.5,3,0,5.7-4,8.2-12.1l.2-.6ZM127.4,45.9h13.2l.2-.7c1.7-5,3.3-9.7,5.1-14.7l.8-2.3h4.7c.1-.3.2-.7.3-.9h-5.8l-.8,2.3c-1.7,4.9-3.4,9.6-5.1,14.7l-.2.7h-12l-.3.9ZM48.3,63l-2-10.8-.8.8,1.8,9.3c.8,4,1.8,5.8,3.1,6.9-.8-1.2-1.5-3.2-2.1-6.3M120.1,50.8h-1.1l-5,15,1.2-.2,4.9-14.8ZM163.9,60.2l-.5-2.5-.5.7.2.8c.2.9.7,1.7,1.4,2.4-.3-.5-.5-.9-.6-1.4M138.9,50.8h-1.1l-5,15,1.2-.2,4.9-14.8ZM150.6,61.1c-2.1-3.3-1.2-9.3.7-13.4,2.4-5.1,6.4-8.4,10.2-8.4s3.1.7,4.1,1.6c-.8-1.3-2.8-2.5-4.9-2.5-3.8,0-7.8,3.3-10.2,8.4-1.9,4.1-2.8,10.1-.7,13.4.3.5.6.9,1,1.2,0,0-.2-.2-.2-.3M177.8,59.8l-.3-2.2-.6.7v.6c.2,1.4.7,2.4,1.5,3-.3-.5-.5-1.2-.6-2M192,59.8l-.3-2.2-.6.7v.6c.2,1.3.8,2.3,1.6,2.9-.3-.5-.6-1.1-.7-1.9M83.9,57.9l-1.6,1.3-1,2.9h1.1l1.4-4.2ZM40.1,33.2h-1.1l-10.9,32.4,1.2-.2,10.9-32.2ZM59.7,54.4c0-4.2,1.6-8.5,4.4-11.3,2.4-2.5,5.5-3.8,9-3.8s4.1.7,5.4,1.9c-1.2-1.8-3.5-2.8-6.3-2.8s-6.5,1.3-9,3.8c-2.8,2.8-4.4,7.1-4.4,11.3,0,2.9,1,4.9,2.5,6.4-1-1.4-1.7-3.1-1.7-5.4M97,59c0-2.5,1.4-5.3,2.6-7.7,1-2,1.9-3.7,1.9-5,0-1-.4-1.7-1.1-2.1.1.3.3.7.3,1.1,0,1.4-.9,3.1-1.9,5-1.2,2.4-2.6,5.2-2.6,7.7s.6,2.7,1.4,3.3c-.4-.6-.6-1.4-.6-2.4M36.5,28.2h9.9l.3-.9h-11l-1.7,5h1.1l1.4-4.1ZM115,45.9h6.7l.2-.7c1.7-5,3.4-9.8,5.1-14.7l.8-2.3h4.7l.3-.9h-5.8l-.8,2.3c-1.7,4.9-3.4,9.7-5.1,14.7l-.2.7h-6.7l-1.6,4.9h1.1l1.3-4Z"></path>
        <path class="cls-3" d="M207.3,54.1l-.2-.9h-.8v2.5h.6v-1.2c0-.1,0-.4,0-.4l.4,1.3h.1l.4-1.3s0,.3,0,.4v1.2h.6v-2.5h-.8l-.2.9ZM204.4,53.8h.4v2h.6v-2h.4v-.6h-1.4v.6Z"></path>
        <path class="cls-2" d="M40.3,97.3c-6.3,0-11.4-5.1-11.4-11.4s5.1-11.4,11.4-11.4h153.2c6.3,0,11.4,5.1,11.4,11.4s-5.1,11.4-11.4,11.4H40.3Z"></path>
        <path class="cls-2" d="M69.5,107.1c-6.3,0-11.4-5.1-11.4-11.4s5.1-11.4,11.4-11.4h96.5c6.3,0,11.4,5.1,11.4,11.4s-5.1,11.4-11.4,11.4h-96.5Z"></path>
        <path class="cls-14" d="M193.5,76.4H40.3c-5.3,0-9.6,4.3-9.6,9.6s4.3,9.6,9.6,9.6h19.6s0,0,0,.1c0,5.3,4.3,9.6,9.6,9.6h96.5c5.3,0,9.6-4.3,9.6-9.6s0,0,0-.1h17.9c5.3,0,9.6-4.3,9.6-9.6s-4.3-9.6-9.6-9.6"></path>
        <g class="cls-4">
          <g class="cls-10">
            <g class="cls-12">
              <path class="cls-6" d="M193.5,76.4H40.3c-4.3,0-7.9,2.8-9.1,6.7,0,0,0,0,0,0,1.5-3.3,4.8-5.6,8.7-5.6h154.9c2,0,3.8.6,5.3,1.6-1.7-1.6-4-2.7-6.6-2.7"></path>
            </g>
          </g>
        </g>
        <path class="cls-13" d="M40.5,81.5h3.5c2.1,0,2.9.8,2.9,2.6s-.8,2.6-2.8,2.6h-1.4v2.1h-2.2v-7.2ZM42.7,83.2v1.7h1c.8,0,.9-.2.9-.9s-.2-.8-.9-.8h-1Z"></path>
        <polygon class="cls-13" points="47.7 81.5 50 81.5 50 86.8 53.1 86.8 53.1 88.7 47.7 88.7 47.7 81.5"></polygon>
        <path class="cls-13" d="M55,88.4c-.8-.4-1.2-1.2-1.2-2.5v-4.5h2.3v4.4c0,.8.3,1,1,1s1.1-.2,1.1-1v-4.4h2.2v4.5c0,1.3-.4,2.1-1.2,2.5-.5.3-1.2.4-2.1.4s-1.6,0-2.1-.4"></path>
        <path class="cls-13" d="M66.5,87.3h-1.9l-.6-1.6c-.2-.6-.4-1.1-.5-1.7h0c0,.6,0,1.3,0,1.9v2.7h-2.2v-7.2h3l.7,2.1c.2.6.4,1.2.5,1.8h0c.1-.6.3-1.2.5-1.8l.7-2.1h2.9v7.2h-2.3v-2.7c0-.6,0-1.3,0-1.9h0c-.1.6-.3,1.2-.5,1.7l-.6,1.6Z"></path>
        <path class="cls-13" d="M70.8,81.5h3.7c1.7,0,2.4.6,2.4,1.8s-.4,1.4-.9,1.5h0c.6.1,1.2.6,1.2,1.7,0,1.6-.8,2.2-2.6,2.2h-3.7v-7.2ZM74.1,84.2c.5,0,.6-.1.6-.6s-.2-.6-.6-.6h-1.2v1.2h1.2ZM74.3,87.1c.5,0,.7-.1.7-.7s-.2-.7-.7-.7h-1.3v1.3h1.3Z"></path>
        <rect class="cls-13" x="78" y="81.5" width="2.3" height="7.2"></rect>
        <path class="cls-13" d="M88.2,88.7h-2.6l-1.2-2.5c-.3-.7-.6-1.2-.8-1.9h0c0,.8,0,1.4,0,2.3v2.2h-2.2v-7.2h2.6l1.2,2.5c.3.7.6,1.2.8,1.9h0c0-.8,0-1.4,0-2.2v-2.2h2.2v7.2Z"></path>
        <path class="cls-13" d="M92.5,84.5h3.3v3.8c-.7.3-1.7.6-3,.6s-1.7-.1-2.3-.5c-.9-.5-1.4-1.5-1.4-3.1h0c0-1.8.5-2.8,1.4-3.4.6-.4,1.5-.5,2.6-.5s2.1.2,2.6.5l-.4,1.7c-.5-.1-1.2-.2-1.9-.2s-1.1,0-1.5.3c-.4.2-.6.7-.6,1.5v.2c0,.8.2,1.2.6,1.4.3.2.7.2,1.1.2s.6,0,.7,0v-.9h-1.2v-1.5Z"></path>
        <path class="cls-2" d="M98.6,85.5c0-.9.5-1.5,1.5-1.5s1.5.7,1.5,1.5-.5,1.5-1.5,1.5-1.5-.7-1.5-1.5"></path>
        <path class="cls-13" d="M111.9,88.7h-2.4l-.4-1.3h-2.2l-.4,1.3h-2.2l2.7-7.2h2.2l2.7,7.2ZM107.5,85.8h1.2v-.4c-.3-.5-.4-1.1-.6-1.8h0c-.1.7-.3,1.2-.4,1.8v.4Z"></path>
        <rect class="cls-13" x="112.5" y="81.5" width="2.3" height="7.2"></rect>
        <path class="cls-13" d="M118.9,86.5h-.8v2.2h-2.2v-7.2h3.6c2.2,0,2.9.8,2.9,2.5s-.4,1.9-1.3,2.3l1.5,2.5h-2.4l-1.3-2.2ZM118.1,83.2v1.6h1.1c.8,0,.9-.2.9-.8s-.2-.8-.9-.8h-1.1Z"></path>
        <path class="cls-2" d="M124.5,85.5c0-.9.5-1.5,1.5-1.5s1.5.7,1.5,1.5-.5,1.5-1.5,1.5-1.5-.7-1.5-1.5"></path>
        <polygon class="cls-13" points="130.2 81.5 135.9 81.5 135.9 83.3 132.4 83.3 132.4 84.1 135.4 84.1 135.4 85.9 132.4 85.9 132.4 86.9 135.9 86.9 135.9 88.7 130.2 88.7 130.2 81.5"></polygon>
        <polygon class="cls-13" points="136.8 81.5 139 81.5 139 86.8 142.1 86.8 142.1 88.7 136.8 88.7 136.8 81.5"></polygon>
        <polygon class="cls-13" points="142.9 81.5 148.6 81.5 148.6 83.3 145.2 83.3 145.2 84.1 148.1 84.1 148.1 85.9 145.2 85.9 145.2 86.9 148.6 86.9 148.6 88.7 142.9 88.7 142.9 81.5"></polygon>
        <path class="cls-13" d="M149.3,85c0-1.8.6-2.8,1.6-3.3.5-.3,1.2-.4,2-.4s2,.2,2.5.4l-.4,1.7c-.5-.1-1.1-.2-1.6-.2s-1,0-1.3.2c-.4.2-.5.7-.5,1.4v.2c0,.7.2,1.2.5,1.4.3.2.7.2,1.3.2s1.2,0,1.6-.2l.4,1.7c-.5.2-1.5.4-2.5.4s-1.4-.1-2-.4c-1-.5-1.6-1.5-1.6-3.3h0Z"></path>
        <polygon class="cls-13" points="160 83.3 160 88.7 157.8 88.7 157.8 83.3 155.8 83.3 155.8 81.5 162 81.5 162 83.3 160 83.3"></polygon>
        <path class="cls-13" d="M165.8,86.5h-.8v2.2h-2.2v-7.2h3.6c2.2,0,2.9.8,2.9,2.5s-.4,1.9-1.3,2.3l1.5,2.5h-2.4l-1.3-2.2ZM165,83.2v1.6h1.1c.8,0,.9-.2.9-.8s-.2-.8-.9-.8h-1.1Z"></path>
        <rect class="cls-13" x="170.2" y="81.5" width="2.3" height="7.2"></rect>
        <path class="cls-13" d="M173.3,85c0-1.8.6-2.8,1.6-3.3.5-.3,1.2-.4,2-.4s2,.2,2.5.4l-.4,1.7c-.5-.1-1.1-.2-1.6-.2s-1,0-1.3.2c-.4.2-.5.7-.5,1.4v.2c0,.7.2,1.2.5,1.4.3.2.7.2,1.3.2s1.2,0,1.6-.2l.4,1.7c-.5.2-1.5.4-2.5.4s-1.4-.1-2-.4c-1-.5-1.6-1.5-1.6-3.3h0Z"></path>
        <path class="cls-13" d="M187.4,88.7h-2.4l-.4-1.3h-2.2l-.4,1.3h-2.2l2.7-7.2h2.2l2.7,7.2ZM182.9,85.8h1.2v-.4c-.3-.5-.4-1.1-.6-1.8h0c-.1.7-.3,1.2-.4,1.8v.4Z"></path>
        <polygon class="cls-13" points="188 81.5 190.2 81.5 190.2 86.8 193.3 86.8 193.3 88.7 188 88.7 188 81.5"></polygon>
        <path class="cls-13" d="M71.1,98h-.8v2.2h-2.2v-7.2h3.6c2.2,0,2.9.8,2.9,2.5s-.4,1.9-1.3,2.3l1.5,2.5h-2.4l-1.3-2.2ZM70.3,94.7v1.6h1.1c.8,0,.9-.2.9-.8s-.2-.8-.9-.8h-1.1Z"></path>
        <path class="cls-13" d="M82.4,96.5h0c0,2.6-1.2,3.8-3.6,3.8s-3.6-1.2-3.6-3.7h0c0-2.6,1.2-3.8,3.6-3.8s3.6,1.2,3.6,3.7M79.6,98.3c.4-.3.5-.8.5-1.6v-.2c0-.8-.1-1.4-.5-1.6-.2-.1-.5-.2-.8-.2s-.6,0-.8.2c-.4.3-.5.8-.5,1.6v.2c0,.8.1,1.4.5,1.6.2.1.5.2.8.2s.6,0,.8-.2"></path>
        <path class="cls-13" d="M90.3,96.5h0c0,2.6-1.2,3.8-3.6,3.8s-3.6-1.2-3.6-3.7h0c0-2.6,1.2-3.8,3.6-3.8s3.6,1.2,3.6,3.7M87.5,98.3c.4-.3.5-.8.5-1.6v-.2c0-.8-.1-1.4-.5-1.6-.2-.1-.5-.2-.8-.2s-.6,0-.8.2c-.4.3-.5.8-.5,1.6v.2c0,.8.1,1.4.5,1.6.2.1.5.2.8.2s.6,0,.8-.2"></path>
        <polygon class="cls-13" points="91.2 93 96.7 93 96.7 94.8 93.4 94.8 93.4 96.1 96.4 96.1 96.4 98 93.4 98 93.4 100.2 91.2 100.2 91.2 93"></polygon>
        <rect class="cls-13" x="97.6" y="93" width="2.3" height="7.2"></rect>
        <path class="cls-13" d="M107.8,100.2h-2.6l-1.2-2.5c-.3-.7-.6-1.2-.8-1.9h0c0,.8,0,1.4,0,2.3v2.2h-2.2v-7.2h2.6l1.2,2.5c.3.7.6,1.2.8,1.9h0c0-.8,0-1.4,0-2.2v-2.2h2.2v7.2Z"></path>
        <path class="cls-13" d="M112.1,96h3.3v3.8c-.7.3-1.7.6-3,.6s-1.7-.1-2.3-.5c-.9-.5-1.4-1.5-1.4-3.1h0c0-1.8.5-2.8,1.4-3.4.6-.4,1.5-.5,2.6-.5s2.1.2,2.6.5l-.4,1.7c-.5-.1-1.2-.2-1.9-.2s-1.1,0-1.5.3c-.4.2-.6.7-.6,1.5v.2c0,.8.2,1.2.6,1.4.3.2.7.2,1.1.2s.6,0,.7,0v-.9h-1.2v-1.5Z"></path>
        <path class="cls-2" d="M118.1,97c0-.9.5-1.5,1.5-1.5s1.5.7,1.5,1.5-.5,1.5-1.5,1.5-1.5-.7-1.5-1.5"></path>
        <polygon class="cls-13" points="128 94.8 128 100.2 125.8 100.2 125.8 94.8 123.8 94.8 123.8 93 130 93 130 94.8 128 94.8"></polygon>
        <path class="cls-13" d="M133.7,98h-.8v2.2h-2.2v-7.2h3.6c2.2,0,2.9.8,2.9,2.5s-.4,1.9-1.3,2.3l1.5,2.5h-2.4l-1.3-2.2ZM133,94.7v1.6h1.1c.8,0,.9-.2.9-.8s-.2-.8-.9-.8h-1.1Z"></path>
        <path class="cls-13" d="M145.1,100.2h-2.4l-.4-1.3h-2.2l-.4,1.3h-2.2l2.7-7.2h2.2l2.7,7.2ZM140.7,97.3h1.2v-.4c-.3-.5-.4-1.1-.6-1.8h0c-.1.7-.3,1.2-.4,1.8v.4Z"></path>
        <path class="cls-13" d="M152.4,96.7c0,2.6-1.1,3.6-3.5,3.6h-3.2v-7.2h3.2c2.5,0,3.5.9,3.5,3.5h0ZM150.1,96.5c0-1.3-.3-1.6-1.3-1.6h-.9v3.5h.9c1,0,1.3-.4,1.3-1.7v-.2Z"></path>
        <polygon class="cls-13" points="153.3 93 158.9 93 158.9 94.8 155.5 94.8 155.5 95.7 158.5 95.7 158.5 97.4 155.5 97.4 155.5 98.4 159 98.4 159 100.2 153.3 100.2 153.3 93"></polygon>
        <path class="cls-13" d="M161.7,97.4c-1.4-.2-2-.7-2-2.3s.8-2.3,3-2.3,2.2.2,2.8.4l-.4,1.7c-.5-.1-1.4-.2-2.1-.2s-1.1,0-1.1.4.2.4.8.5l.9.2c1.4.2,2,.7,2,2.2s-1.1,2.4-3.1,2.4-2.3-.2-2.8-.4l.4-1.7c.6.2,1.5.3,2.2.3s1.1,0,1.1-.4-.2-.4-.8-.5l-.9-.2Z"></path>
      </g>
    </g>
  </g>
</svg>
