<svg width="634" height="169" viewBox="0 0 634 169" fill="none" xmlns="http://www.w3.org/2000/svg">
<path d="M183.881 52.9438V79.6281C181.68 79.3185 180.128 79.1622 178.314 79.1622C168.346 79.1622 161.482 85.2465 161.482 100.075V138.944H136.881V54.3488H160.317V64.4933C165.366 56.8448 173.524 52.9438 183.881 52.9438Z" fill="url(#paint0_linear_16_48579)"/>
<path d="M189.881 96.289C189.881 70.9669 206.953 52.9438 230.381 52.9438C254.069 52.9438 270.881 70.9669 270.881 96.289C270.881 121.768 254.074 139.944 230.381 139.944C206.953 139.944 189.881 121.768 189.881 96.289ZM245.463 96.289C245.463 83.5502 238.979 76.4038 230.376 76.4038C221.908 76.4038 215.29 83.5502 215.29 96.289C215.29 109.182 221.908 116.484 230.376 116.484C238.979 116.484 245.463 109.182 245.463 96.289Z" fill="url(#paint1_linear_16_48579)"/>
<path d="M362.881 96.5409C362.881 123.263 347.196 139.944 327.825 139.944C318.466 139.944 311.482 136.854 306.736 130.214V138.553H282.881V23.9438H307.919V62.096C312.795 56.2251 319.516 53.4457 327.821 53.4457C347.198 53.4457 362.881 69.9744 362.881 96.5409ZM337.576 96.5409C337.576 83.8755 330.988 76.7703 322.553 76.7703C314.117 76.7703 307.527 83.8755 307.527 96.5409C307.527 109.359 314.117 116.619 322.553 116.619C330.988 116.619 337.576 109.359 337.576 96.5409Z" fill="url(#paint2_linear_16_48579)"/>
<path d="M369.881 96.289C369.881 70.9669 386.954 52.9438 410.384 52.9438C434.073 52.9438 450.881 70.9669 450.881 96.289C450.881 121.768 434.073 139.944 410.384 139.944C386.954 139.944 369.881 121.768 369.881 96.289ZM425.467 96.289C425.467 83.5502 418.981 76.4038 410.381 76.4038C401.91 76.4038 395.292 83.5502 395.292 96.289C395.292 109.182 401.91 116.484 410.381 116.484C418.981 116.484 425.467 109.182 425.467 96.289Z" fill="url(#paint3_linear_16_48579)"/>
<path d="M457.881 96.289C457.881 70.9669 474.953 52.9438 498.381 52.9438C522.068 52.9438 538.881 70.9669 538.881 96.289C538.881 121.768 522.074 139.944 498.381 139.944C474.953 139.944 457.881 121.768 457.881 96.289ZM513.463 96.289C513.463 83.5502 506.978 76.4038 498.378 76.4038C489.908 76.4038 483.29 83.5502 483.29 96.289C483.29 109.182 489.908 116.484 498.378 116.484C506.978 116.484 513.463 109.182 513.463 96.289Z" fill="url(#paint4_linear_16_48579)"/>
<path d="M582.785 109.498L575.297 118.33V138.944H549.881V23.9438H575.297V84.2319L601.243 54.9414H631.339L601.243 90.8987L633.881 138.944H603.117L582.785 109.498Z" fill="url(#paint5_linear_16_48579)"/>
<path d="M84.7855 11.2009L84.0873 11.9327C84.0663 11.6865 84.0287 11.442 83.9746 11.2009H84.7855Z" fill="#005DC4"/>
<path d="M140.869 32.1757V32.0923C140.866 30.866 140.464 29.6738 139.724 28.6966C138.983 27.7194 137.943 27.0103 136.763 26.677L141.789 21.5939C143.741 22.7732 145.312 24.489 146.315 26.5365L140.869 32.1757Z" fill="#005DC4"/>
<path d="M32.3639 162.159L26.7187 168.022C26.0636 167.749 25.4367 167.412 24.8467 167.017V159.197L26.1317 157.912C26.4206 159.138 27.116 160.231 28.1049 161.012C29.0937 161.793 30.3178 162.216 31.5779 162.213C31.8407 162.209 32.103 162.191 32.3639 162.159Z" fill="#005DC4"/>
<path d="M29.4556 29.6349V68.5124L66.9655 29.6349H29.4556ZM46.1864 137.664L45.7385 138.104H60.1509V133.391L60.1787 123.504V123.449L46.1864 137.664ZM125.116 56.3353L73.5007 109.771H79.0625C108.64 109.771 127.241 94.4035 127.241 69.7755C127.238 64.9091 126.512 60.4129 125.116 56.3353ZM122.797 50.8878C121.676 48.7431 120.307 46.7374 118.718 44.9119C110.591 35.1644 96.7929 29.6349 79.0537 29.6349H74.5633L51.7716 52.9559L29.4556 75.829V138.111H39.0073L60.1509 116.131V109.771H66.2674L122.825 50.9171C122.825 50.9133 122.825 50.9095 122.823 50.906C122.822 50.9024 122.82 50.8992 122.817 50.8965C122.815 50.8937 122.812 50.8915 122.808 50.8901C122.805 50.8886 122.801 50.8878 122.797 50.8878ZM77.1875 85.575H60.1509V53.815H77.1875C89.8963 53.815 96.2645 59.7089 96.2645 69.7682C96.2645 79.6841 89.8963 85.5765 77.1875 85.5765V85.575Z" fill="url(#paint6_linear_16_48579)"/>
<path d="M78.2209 18.0154L72.943 23.4615L66.9655 29.6349L29.4556 68.5124V57.7594L67.9432 18.8819L73.0528 13.7154C73.3376 14.8924 73.9941 15.9463 74.925 16.7208C75.8559 17.4954 77.0117 17.9494 78.2209 18.0154Z" fill="url(#paint7_linear_16_48579)"/>
<path d="M69.3937 44.4948L60.4012 53.8223L60.1494 54.0741L29.4556 85.856L23.8426 91.6929L17.9485 97.7814C18.2256 96.4051 17.9822 94.9749 17.2655 93.7677C16.5487 92.5604 15.4095 91.6621 14.0684 91.2465V91.0504L18.9833 86.0741L51.7687 52.95L52.9981 51.6928L60.1509 44.4948H69.3937Z" fill="url(#paint8_linear_16_48579)"/>
<path d="M135.257 37.7067C135.36 37.7114 135.464 37.7016 135.564 37.6774L122.8 50.8878L98.3034 76.2768V65.5238L118.718 44.9119L124.779 38.7648L129.864 33.6642C130.2 34.8331 130.909 35.8603 131.883 36.5898C132.856 37.3194 134.041 37.7115 135.257 37.7067Z" fill="url(#paint9_linear_16_48579)"/>
<path d="M60.1728 123.504L60.145 133.391L37.1645 157.192C37.1876 156.997 37.1969 156.802 37.1923 156.606C37.1941 155.335 36.7639 154.101 35.9722 153.106C35.1805 152.112 34.0744 151.416 32.8351 151.132L37.9256 145.988H37.9534L45.7458 138.111L46.1937 137.672L60.1728 123.504Z" fill="url(#paint10_linear_16_48579)"/>
<path d="M78.5004 0.00148813C76.87 -0.000434957 75.2552 0.318813 73.7481 0.941002C72.2411 1.56319 70.8714 2.47613 69.7172 3.6277C68.563 4.77926 67.647 6.14689 67.0214 7.65249C66.3959 9.15808 66.073 10.7722 66.0713 12.4025C66.0646 14.6966 66.7142 16.9448 67.9432 18.8819C69.1272 20.8636 70.8652 22.4556 72.943 23.4615C74.6618 24.3501 76.5699 24.8101 78.5048 24.8021C80.1446 24.8197 81.7716 24.5118 83.2916 23.8963C84.8117 23.2809 86.1945 22.3701 87.3602 21.2166C88.5259 20.0632 89.4512 18.69 90.0826 17.1765C90.714 15.6631 91.039 14.0395 91.0387 12.3996C91.0384 10.7597 90.7128 9.1362 90.0809 7.62299C89.449 6.10977 88.5232 4.73691 87.3571 3.58388C86.191 2.43084 84.8078 1.52052 83.2876 0.905601C81.7673 0.290685 80.1402 -0.0166147 78.5004 0.00148813ZM78.5004 18.0154H78.2209C77.0117 17.9494 75.8559 17.4954 74.925 16.7208C73.9941 15.9463 73.3376 14.8924 73.0528 13.7154C72.9407 13.2853 72.8846 12.8426 72.8859 12.3981C72.886 11.0153 73.3969 9.68128 74.3205 8.65217C75.2441 7.62305 76.5154 6.97142 77.8902 6.82242C79.265 6.67342 80.6464 7.03755 81.7691 7.84489C82.8918 8.65222 83.6766 9.84584 83.9729 11.1965C84.027 11.4376 84.0647 11.6821 84.0856 11.9283C84.1096 12.0857 84.1189 12.2449 84.1134 12.404C84.1127 13.8923 83.521 15.3193 82.4685 16.3715C81.416 17.4238 79.9887 18.015 78.5004 18.0154Z" fill="url(#paint11_linear_16_48579)"/>
<path d="M23.8426 91.6929C22.6309 88.865 20.413 86.5874 17.6184 85.3009C14.8237 84.0144 11.6511 83.8106 8.71484 84.729C5.77856 85.6473 3.28749 87.6225 1.72396 90.2721C0.160433 92.9217 -0.36433 96.0571 0.251279 99.0714C0.866888 102.086 2.57908 104.764 5.05632 106.589C7.53357 108.413 10.5997 109.253 13.6609 108.947C16.7221 108.64 19.5608 107.209 21.6272 104.93C23.6936 102.65 24.8408 99.6856 24.8466 96.6091C24.8449 94.9196 24.5034 93.2477 23.8426 91.6929ZM12.4467 102.222C11.7019 102.234 10.9621 102.098 10.2705 101.821C9.57885 101.544 8.9492 101.133 8.41822 100.61C7.88724 100.088 7.46554 99.4649 7.17769 98.7778C6.88984 98.0908 6.74159 97.3533 6.74159 96.6084C6.74159 95.8634 6.88984 95.126 7.17769 94.4389C7.46554 93.7519 7.88724 93.129 8.41822 92.6065C8.9492 92.084 9.57885 91.6724 10.2705 91.3957C10.9621 91.119 11.7019 90.9827 12.4467 90.9947C12.9971 90.9938 13.5442 91.0788 14.0684 91.2465C15.362 91.63 16.4738 92.4673 17.1996 93.6046C17.9254 94.742 18.2166 96.103 18.0196 97.4377C17.8225 98.7724 17.1506 99.9913 16.1271 100.87C15.1037 101.75 13.7974 102.23 12.4482 102.223L12.4467 102.222Z" fill="url(#paint12_linear_16_48579)"/>
<path d="M146.315 26.5336C145.312 24.486 143.741 22.7703 141.789 21.591C139.836 20.348 137.569 19.6879 135.254 19.6883C133.027 19.6824 130.84 20.2763 128.923 21.4077C127.005 22.5392 125.427 24.1663 124.355 26.1181C123.284 28.07 122.758 30.2744 122.833 32.4998C122.907 34.7252 123.58 36.8894 124.78 38.7648C126.065 40.776 127.91 42.3679 130.088 43.3444C131.702 44.1124 133.469 44.5056 135.257 44.4948C138.545 44.4925 141.698 43.1852 144.024 40.8601C146.349 38.5349 147.656 35.382 147.658 32.0938C147.661 30.1597 147.2 28.2531 146.315 26.5336ZM140.869 32.2006C140.843 33.6157 140.28 34.9681 139.295 35.9843C138.31 37.0005 136.975 37.6046 135.562 37.6745C135.461 37.6987 135.358 37.7085 135.254 37.7037C134.039 37.7081 132.855 37.3161 131.882 36.5872C130.909 35.8582 130.201 34.8321 129.864 33.6642V33.6349C129.717 33.1362 129.642 32.6194 129.64 32.0996C129.639 31.3615 129.784 30.6305 130.066 29.9484C130.348 29.2663 130.761 28.6464 131.283 28.1243C131.805 27.6022 132.424 27.1881 133.106 26.9056C133.788 26.6231 134.519 26.4778 135.257 26.4779C135.766 26.4841 136.273 26.5499 136.766 26.6741C137.946 27.0074 138.986 27.7164 139.727 28.6937C140.467 29.6709 140.869 30.8631 140.872 32.0894L140.869 32.2006Z" fill="url(#paint13_linear_16_48579)"/>
<path d="M42.8068 151.351C41.7747 149.107 40.0779 147.235 37.9461 145.988L37.9256 145.988C36.0194 144.814 33.8237 144.196 31.5852 144.201C28.9042 144.193 26.2929 145.054 24.1432 146.656C21.9934 148.258 20.4212 150.514 19.6625 153.085C18.9038 155.656 18.9995 158.404 19.9353 160.917C20.8711 163.429 22.5965 165.57 24.8525 167.018C25.4425 167.413 26.0694 167.75 26.7245 168.024C28.2641 168.666 29.9154 168.999 31.5837 169.001C34.8701 168.998 38.021 167.691 40.3448 165.367C42.6687 163.043 43.9757 159.893 43.9792 156.606C43.9829 154.789 43.5824 152.994 42.8068 151.351ZM32.3638 162.159C32.104 162.192 31.8426 162.21 31.5808 162.215C30.3207 162.218 29.0966 161.795 28.1077 161.014C27.1189 160.232 26.4234 159.14 26.1346 157.913C26.0223 157.483 25.9662 157.04 25.9678 156.596C25.9678 155.107 26.5591 153.68 27.6118 152.627C28.6644 151.575 30.0921 150.983 31.5808 150.983C32.0037 150.991 32.4248 151.04 32.838 151.13C34.0775 151.413 35.1837 152.11 35.9752 153.105C36.7666 154.1 37.1963 155.335 37.1938 156.606C37.1984 156.802 37.1891 156.997 37.166 157.192C37.0396 158.439 36.4972 159.607 35.6261 160.508C34.7549 161.409 33.6058 161.991 32.3638 162.159Z" fill="url(#paint14_linear_16_48579)"/>
<defs>
<linearGradient id="paint0_linear_16_48579" x1="160.381" y1="52.9438" x2="160.381" y2="138.944" gradientUnits="userSpaceOnUse">
<stop stop-color="#005DC4"/>
<stop offset="1" stop-color="#002D5E"/>
</linearGradient>
<linearGradient id="paint1_linear_16_48579" x1="230.381" y1="52.9438" x2="230.381" y2="139.944" gradientUnits="userSpaceOnUse">
<stop stop-color="#005DC4"/>
<stop offset="1" stop-color="#002D5E"/>
</linearGradient>
<linearGradient id="paint2_linear_16_48579" x1="322.881" y1="23.9438" x2="322.881" y2="139.944" gradientUnits="userSpaceOnUse">
<stop stop-color="#005DC4"/>
<stop offset="1" stop-color="#002D5E"/>
</linearGradient>
<linearGradient id="paint3_linear_16_48579" x1="410.381" y1="52.9438" x2="410.381" y2="139.944" gradientUnits="userSpaceOnUse">
<stop stop-color="#005DC4"/>
<stop offset="1" stop-color="#002D5E"/>
</linearGradient>
<linearGradient id="paint4_linear_16_48579" x1="498.381" y1="52.9438" x2="498.381" y2="139.944" gradientUnits="userSpaceOnUse">
<stop stop-color="#005DC4"/>
<stop offset="1" stop-color="#002D5E"/>
</linearGradient>
<linearGradient id="paint5_linear_16_48579" x1="591.881" y1="23.9438" x2="591.881" y2="138.944" gradientUnits="userSpaceOnUse">
<stop stop-color="#005DC4"/>
<stop offset="1" stop-color="#002D5E"/>
</linearGradient>
<linearGradient id="paint6_linear_16_48579" x1="73.8292" y1="0.000732422" x2="73.8292" y2="169.001" gradientUnits="userSpaceOnUse">
<stop stop-color="#005DC4"/>
<stop offset="1" stop-color="#002D5E"/>
</linearGradient>
<linearGradient id="paint7_linear_16_48579" x1="73.8292" y1="0.000732422" x2="73.8292" y2="169.001" gradientUnits="userSpaceOnUse">
<stop stop-color="#005DC4"/>
<stop offset="1" stop-color="#002D5E"/>
</linearGradient>
<linearGradient id="paint8_linear_16_48579" x1="73.8292" y1="0.000732422" x2="73.8292" y2="169.001" gradientUnits="userSpaceOnUse">
<stop stop-color="#005DC4"/>
<stop offset="1" stop-color="#002D5E"/>
</linearGradient>
<linearGradient id="paint9_linear_16_48579" x1="73.8292" y1="0.000732422" x2="73.8292" y2="169.001" gradientUnits="userSpaceOnUse">
<stop stop-color="#005DC4"/>
<stop offset="1" stop-color="#002D5E"/>
</linearGradient>
<linearGradient id="paint10_linear_16_48579" x1="73.8292" y1="0.000732422" x2="73.8292" y2="169.001" gradientUnits="userSpaceOnUse">
<stop stop-color="#005DC4"/>
<stop offset="1" stop-color="#002D5E"/>
</linearGradient>
<linearGradient id="paint11_linear_16_48579" x1="73.8292" y1="0.000732422" x2="73.8292" y2="169.001" gradientUnits="userSpaceOnUse">
<stop stop-color="#005DC4"/>
<stop offset="1" stop-color="#002D5E"/>
</linearGradient>
<linearGradient id="paint12_linear_16_48579" x1="73.8292" y1="0.000732422" x2="73.8292" y2="169.001" gradientUnits="userSpaceOnUse">
<stop stop-color="#005DC4"/>
<stop offset="1" stop-color="#002D5E"/>
</linearGradient>
<linearGradient id="paint13_linear_16_48579" x1="73.8292" y1="0.000732422" x2="73.8292" y2="169.001" gradientUnits="userSpaceOnUse">
<stop stop-color="#005DC4"/>
<stop offset="1" stop-color="#002D5E"/>
</linearGradient>
<linearGradient id="paint14_linear_16_48579" x1="73.8292" y1="0.000732422" x2="73.8292" y2="169.001" gradientUnits="userSpaceOnUse">
<stop stop-color="#005DC4"/>
<stop offset="1" stop-color="#002D5E"/>
</linearGradient>
</defs>
</svg>
