<svg width="148" height="169" viewBox="0 0 148 169" fill="none" xmlns="http://www.w3.org/2000/svg">
<path d="M29.4556 29.6342V68.5117L66.9655 29.6342H29.4556ZM46.1864 137.664L45.7385 138.103H60.1509V133.39L60.1787 123.503V123.448L46.1864 137.664ZM125.116 56.3346L73.5007 109.77H79.0625C108.64 109.77 127.241 94.4027 127.241 69.7748C127.238 64.9083 126.512 60.4122 125.116 56.3346ZM122.797 50.8871C121.676 48.7424 120.307 46.7367 118.718 44.9112C110.591 35.1637 96.7929 29.6342 79.0537 29.6342H74.5633L51.7716 52.9551L29.4556 75.8282V138.11H39.0073L60.1509 116.13V109.77H66.2674L122.825 50.9163C122.825 50.9126 122.825 50.9088 122.823 50.9053C122.822 50.9017 122.82 50.8985 122.817 50.8957C122.815 50.893 122.812 50.8908 122.808 50.8893C122.805 50.8878 122.801 50.8871 122.797 50.8871ZM77.1875 85.5743H60.1509V53.8143H77.1875C89.8963 53.8143 96.2645 59.7082 96.2645 69.7675C96.2645 79.6833 89.8963 85.5758 77.1875 85.5758V85.5743Z" fill="url(#paint0_linear_55_97401)"/>
<path d="M78.2209 18.0147L72.943 23.4607L66.9655 29.6342L29.4556 68.5117V57.7587L67.9432 18.8811L73.0528 13.7147C73.3376 14.8917 73.9941 15.9456 74.925 16.7201C75.8559 17.4947 77.0117 17.9486 78.2209 18.0147Z" fill="url(#paint1_linear_55_97401)"/>
<path d="M69.3937 44.4941L60.4012 53.8216L60.1494 54.0733L29.4556 85.8553L23.8426 91.6921L17.9485 97.7807C18.2256 96.4044 17.9822 94.9741 17.2655 93.7669C16.5487 92.5597 15.4095 91.6613 14.0684 91.2457V91.0496L18.9833 86.0734L51.7687 52.9493L52.9981 51.6921L60.1509 44.4941H69.3937Z" fill="url(#paint2_linear_55_97401)"/>
<path d="M135.257 37.7059C135.36 37.7107 135.464 37.7009 135.564 37.6767L122.8 50.8871L98.3034 76.2761V65.523L118.718 44.9112L124.779 38.7641L129.864 33.6635C130.2 34.8324 130.909 35.8595 131.883 36.5891C132.856 37.3186 134.041 37.7108 135.257 37.7059Z" fill="url(#paint3_linear_55_97401)"/>
<path d="M60.1728 123.503L60.145 133.39L37.1645 157.191C37.1876 156.997 37.1969 156.801 37.1923 156.606C37.1941 155.334 36.7639 154.1 35.9722 153.106C35.1805 152.111 34.0744 151.415 32.8351 151.132L37.9256 145.987H37.9534L45.7458 138.11L46.1937 137.671L60.1728 123.503Z" fill="url(#paint4_linear_55_97401)"/>
<path d="M78.5004 0.000755707C76.87 -0.00116738 75.2552 0.318081 73.7481 0.940269C72.2411 1.56246 70.8714 2.4754 69.7172 3.62696C68.5631 4.77853 67.647 6.14616 67.0214 7.65175C66.3959 9.15735 66.073 10.7714 66.0713 12.4018C66.0646 14.6959 66.7142 16.9441 67.9432 18.8811C69.1272 20.8629 70.8652 22.4548 72.943 23.4607C74.6618 24.3494 76.5699 24.8094 78.5048 24.8014C80.1446 24.8189 81.7716 24.511 83.2916 23.8956C84.8117 23.2801 86.1945 22.3693 87.3602 21.2159C88.5259 20.0624 89.4512 18.6892 90.0826 17.1758C90.714 15.6624 91.039 14.0387 91.0387 12.3989C91.0384 10.759 90.7128 9.13547 90.0809 7.62225C89.449 6.10904 88.5232 4.73618 87.3571 3.58314C86.191 2.43011 84.8078 1.51979 83.2876 0.904869C81.7673 0.289953 80.1402 -0.0173471 78.5004 0.000755707ZM78.5004 18.0147H78.2209C77.0117 17.9486 75.8559 17.4947 74.925 16.7201C73.9941 15.9456 73.3376 14.8917 73.0528 13.7147C72.9406 13.2846 72.8846 12.8419 72.8859 12.3974C72.886 11.0146 73.3969 9.68055 74.3205 8.65143C75.2442 7.62232 76.5154 6.97069 77.8902 6.82169C79.265 6.67269 80.6464 7.03682 81.7691 7.84415C82.8918 8.65149 83.6766 9.84511 83.9729 11.1958C84.027 11.4369 84.0647 11.6814 84.0856 11.9276C84.1096 12.085 84.1189 12.2442 84.1134 12.4033C84.1127 13.8915 83.521 15.3186 82.4685 16.3708C81.416 17.423 79.9887 18.0143 78.5004 18.0147Z" fill="url(#paint5_linear_55_97401)"/>
<path d="M23.8426 91.6921C22.6309 88.8643 20.413 86.5867 17.6184 85.3002C14.8237 84.0137 11.6511 83.8099 8.71484 84.7282C5.77856 85.6466 3.28749 87.6218 1.72396 90.2714C0.160433 92.9209 -0.36433 96.0564 0.251279 99.0706C0.866888 102.085 2.57908 104.764 5.05632 106.588C7.53357 108.412 10.5997 109.253 13.6609 108.946C16.7221 108.64 19.5608 107.208 21.6272 104.929C23.6936 102.65 24.8408 99.6848 24.8466 96.6084C24.8449 94.9189 24.5034 93.247 23.8426 91.6921ZM12.4467 102.221C11.7019 102.233 10.9621 102.097 10.2705 101.82C9.57885 101.544 8.9492 101.132 8.41822 100.609C7.88724 100.087 7.46554 99.4641 7.17769 98.7771C6.88984 98.09 6.74159 97.3525 6.74159 96.6076C6.74159 95.8627 6.88984 95.1252 7.17769 94.4382C7.46554 93.7511 7.88724 93.1282 8.41822 92.6058C8.9492 92.0833 9.57885 91.6717 10.2705 91.395C10.9621 91.1183 11.7019 90.982 12.4467 90.994C12.9971 90.9931 13.5442 91.078 14.0684 91.2457C15.362 91.6293 16.4738 92.4666 17.1996 93.6039C17.9254 94.7412 18.2166 96.1022 18.0196 97.437C17.8225 98.7717 17.1506 99.9906 16.1271 100.87C15.1037 101.749 13.7974 102.229 12.4482 102.223L12.4467 102.221Z" fill="url(#paint6_linear_55_97401)"/>
<path d="M146.315 26.5328C145.312 24.4853 143.741 22.7696 141.789 21.5903C139.836 20.3473 137.569 19.6872 135.254 19.6876C133.027 19.6816 130.84 20.2756 128.923 21.407C127.005 22.5384 125.427 24.1656 124.355 26.1174C123.284 28.0692 122.758 30.2737 122.833 32.4991C122.907 34.7245 123.58 36.8886 124.78 38.7641C126.065 40.7753 127.91 42.3671 130.088 43.3437C131.702 44.1116 133.469 44.5049 135.257 44.4941C138.545 44.4918 141.698 43.1845 144.024 40.8593C146.349 38.5342 147.656 35.3813 147.658 32.093C147.661 30.1589 147.2 28.2523 146.315 26.5328ZM140.869 32.1999C140.843 33.615 140.28 34.9674 139.295 35.9836C138.31 36.9997 136.975 37.6038 135.562 37.6737C135.461 37.6979 135.358 37.7078 135.254 37.703C134.039 37.7074 132.855 37.3154 131.882 36.5864C130.909 35.8575 130.201 34.8313 129.864 33.6635V33.6342C129.717 33.1355 129.642 32.6186 129.64 32.0989C129.639 31.3608 129.784 30.6298 130.066 29.9477C130.348 29.2656 130.761 28.6457 131.283 28.1236C131.805 27.6015 132.424 27.1873 133.106 26.9048C133.788 26.6223 134.519 26.477 135.257 26.4772C135.766 26.4834 136.273 26.5492 136.766 26.6733C137.946 27.0067 138.986 27.7157 139.727 28.6929C140.467 29.6702 140.869 30.8623 140.872 32.0886L140.869 32.1999Z" fill="url(#paint7_linear_55_97401)"/>
<path d="M42.8068 151.35C41.7747 149.106 40.0779 147.234 37.9461 145.987L37.9256 145.987C36.0194 144.814 33.8237 144.195 31.5852 144.2C28.9042 144.192 26.2929 145.053 24.1432 146.655C21.9934 148.257 20.4212 150.513 19.6625 153.084C18.9038 155.656 18.9995 158.404 19.9353 160.916C20.8711 163.428 22.5965 165.569 24.8525 167.018C25.4425 167.413 26.0694 167.749 26.7245 168.023C28.2641 168.666 29.9154 168.998 31.5837 169.001C34.8701 168.997 38.021 167.69 40.3448 165.366C42.6687 163.043 43.9757 159.892 43.9792 156.606C43.9829 154.788 43.5824 152.993 42.8068 151.35ZM32.3638 162.158C32.104 162.191 31.8426 162.209 31.5808 162.214C30.3207 162.217 29.0966 161.794 28.1077 161.013C27.1189 160.232 26.4234 159.139 26.1346 157.913C26.0223 157.483 25.9662 157.04 25.9678 156.595C25.9678 155.107 26.5591 153.679 27.6118 152.626C28.6644 151.574 30.0921 150.982 31.5808 150.982C32.0037 150.99 32.4248 151.039 32.838 151.129C34.0775 151.413 35.1837 152.109 35.9752 153.104C36.7666 154.099 37.1963 155.334 37.1938 156.606C37.1984 156.801 37.1891 156.997 37.166 157.191C37.0397 158.438 36.4972 159.606 35.6261 160.507C34.7549 161.408 33.6058 161.99 32.3638 162.158Z" fill="url(#paint8_linear_55_97401)"/>
<defs>
<linearGradient id="paint0_linear_55_97401" x1="73.8292" y1="0" x2="73.8292" y2="169.001" gradientUnits="userSpaceOnUse">
<stop stop-color="#005DC4"/>
<stop offset="1" stop-color="#002D5E"/>
</linearGradient>
<linearGradient id="paint1_linear_55_97401" x1="73.8292" y1="0" x2="73.8292" y2="169.001" gradientUnits="userSpaceOnUse">
<stop stop-color="#005DC4"/>
<stop offset="1" stop-color="#002D5E"/>
</linearGradient>
<linearGradient id="paint2_linear_55_97401" x1="73.8292" y1="0" x2="73.8292" y2="169.001" gradientUnits="userSpaceOnUse">
<stop stop-color="#005DC4"/>
<stop offset="1" stop-color="#002D5E"/>
</linearGradient>
<linearGradient id="paint3_linear_55_97401" x1="73.8292" y1="0" x2="73.8292" y2="169.001" gradientUnits="userSpaceOnUse">
<stop stop-color="#005DC4"/>
<stop offset="1" stop-color="#002D5E"/>
</linearGradient>
<linearGradient id="paint4_linear_55_97401" x1="73.8292" y1="0" x2="73.8292" y2="169.001" gradientUnits="userSpaceOnUse">
<stop stop-color="#005DC4"/>
<stop offset="1" stop-color="#002D5E"/>
</linearGradient>
<linearGradient id="paint5_linear_55_97401" x1="73.8292" y1="0" x2="73.8292" y2="169.001" gradientUnits="userSpaceOnUse">
<stop stop-color="#005DC4"/>
<stop offset="1" stop-color="#002D5E"/>
</linearGradient>
<linearGradient id="paint6_linear_55_97401" x1="73.8292" y1="0" x2="73.8292" y2="169.001" gradientUnits="userSpaceOnUse">
<stop stop-color="#005DC4"/>
<stop offset="1" stop-color="#002D5E"/>
</linearGradient>
<linearGradient id="paint7_linear_55_97401" x1="73.8292" y1="0" x2="73.8292" y2="169.001" gradientUnits="userSpaceOnUse">
<stop stop-color="#005DC4"/>
<stop offset="1" stop-color="#002D5E"/>
</linearGradient>
<linearGradient id="paint8_linear_55_97401" x1="73.8292" y1="0" x2="73.8292" y2="169.001" gradientUnits="userSpaceOnUse">
<stop stop-color="#005DC4"/>
<stop offset="1" stop-color="#002D5E"/>
</linearGradient>
</defs>
</svg>
